# xmcd
#
# Track frame offsets:
#	150
#	16573
#	32347
#	47602
#	64946
#	82336
#	100810
#	113517
#	131205
#	145682
#	161158
#	178442
#
# Disc length: 2602 seconds
#
# Revision: 2
# Processed by: cddbd v1.5.2PL0 Copyright (c) Steve Scherf et al.
# Submitted via: audiograbber 1.83.01
#
DISCID=9e0a280c
DTITLE=диомусгс своимас - диомусгс своимас- паки еды
DYEAR=1900
DGENRE=
TTITLE0=се цуяеуы
TTITLE1=де л'а цапас
TTITLE2=паки еды
TTITLE3=думата
TTITLE4=леимале ломои
TTITLE5=де се непеяаса поте
TTITLE6=аспяг леяа
TTITLE7=йемо
TTITLE8=то йакутеяо лоу
TTITLE9=поу ха пас
TTITLE10=дыс лоу
TTITLE11=г фыг сумевифетаи
EXTD=
EXTT0=
EXTT1=
EXTT2=
EXTT3=
EXTT4=
EXTT5=
EXTT6=
EXTT7=
EXTT8=
EXTT9=
EXTT10=
EXTT11=
PLAYORDER=
